# xmcd
#
# Track frame offsets: 
#        150
#        14155
#        34697
#        51635
#        80017
#        96732
#        113437
#        134710
#        162762
#        182872
#        194825
#        218460
#
# Disc length: 3262 seconds
#
# Revision: 0
# Processed by: cddbd v1.5.2PL0 Copyright (c) Steve Scherf et al.
# Submitted via: ExactAudioCopy v0.99pb5
#
DISCID=b60cbc0c
DTITLE=Mike Milligan And The Altar Boyz - Holdin' On
DYEAR=2009
DGENRE=Blues
TTITLE0=She's My Woman
TTITLE1=Dangerous
TTITLE2=Holdin' On
TTITLE3=Wash Over Me
TTITLE4=Let's Get Naked 'n' Run Buck Wild
TTITLE5=No Pain, No Gain
TTITLE6=You Don't Know Me
TTITLE7=Permanent Insanity
TTITLE8=Always
TTITLE9=Cat Can't Make A Sound
TTITLE10=I'm Gonna Love You Baby
TTITLE11=Maggie's
EXTD=
EXTT0=
EXTT1=
EXTT2=
EXTT3=
EXTT4=
EXTT5=
EXTT6=
EXTT7=
EXTT8=
EXTT9=
EXTT10=
EXTT11=
PLAYORDER=
